<?xml version="1.0" standalone="no"?>
<!DOCTYPE svg PUBLIC "-//W3C//DTD SVG 20010904//EN"
 "http://www.w3.org/TR/2001/REC-SVG-20010904/DTD/svg10.dtd">
<svg version="1.0" xmlns="http://www.w3.org/2000/svg"
 width="1024.000000pt" height="1024.000000pt" viewBox="0 0 1024.000000 1024.000000"
 preserveAspectRatio="xMidYMid meet">

<g transform="translate(0.000000,1024.000000) scale(0.100000,-0.100000)"
fill="#000000" stroke="none">
<path d="M3555 8134 c-115 -28 -211 -89 -345 -220 -123 -119 -185 -164 -304
-218 -237 -108 -374 -251 -423 -439 -30 -121 -7 -230 88 -412 l52 -100 -7
-202 c-10 -313 22 -489 123 -693 51 -101 72 -132 162 -237 89 -104 206 -193
342 -260 190 -94 362 -138 607 -153 238 -16 292 -40 451 -208 204 -214 371
-516 478 -859 36 -118 81 -300 95 -383 5 -33 5 -34 -10 -15 -8 11 -47 72 -86
135 -121 196 -225 324 -333 410 -179 143 -389 223 -635 245 -153 13 -466 -44
-650 -119 -83 -34 -110 -52 -110 -75 0 -30 19 -39 119 -56 156 -27 279 -90
505 -258 201 -150 310 -209 476 -259 94 -28 258 -48 393 -48 145 0 199 -12
242 -56 35 -35 78 -118 101 -195 27 -90 33 -245 34 -801 0 -544 0 -558 20
-578 24 -24 48 -25 75 -4 20 15 20 24 16 947 -4 939 5 1675 19 1660 5 -4 42
-105 83 -223 254 -730 436 -1151 612 -1415 171 -257 304 -366 520 -426 67 -18
97 -21 195 -17 97 4 128 10 199 37 169 62 319 169 501 357 186 191 280 318
350 469 89 191 123 374 101 547 -38 305 -210 518 -514 637 -229 89 -428 120
-898 141 -263 11 -419 24 -620 50 -80 10 -213 24 -295 31 -82 7 -153 15 -158
20 -35 31 281 119 549 153 426 54 615 49 1245 -35 110 -14 222 -22 335 -22
159 -1 175 1 250 26 269 90 421 301 490 677 80 436 173 754 315 1075 102 230
208 498 247 623 32 104 36 129 37 227 0 95 -3 116 -23 157 -81 166 -278 198
-661 107 -379 -89 -787 -275 -1189 -541 -491 -325 -914 -757 -1264 -1289 -165
-250 -272 -467 -401 -807 -16 -40 -30 -72 -31 -70 -2 2 1 266 5 588 9 609 10
571 -35 1300 -26 438 -39 518 -97 637 -36 74 -117 166 -190 216 -131 90 -346
122 -521 77 l-89 -23 -26 21 c-140 110 -225 143 -387 148 -60 1 -119 1 -130
-2z m273 -127 c37 -13 89 -37 115 -54 l49 -30 -64 -43 c-114 -78 -194 -148
-241 -213 -46 -62 -49 -64 -125 -86 -42 -12 -124 -45 -181 -73 -222 -109 -340
-289 -341 -520 0 -80 24 -272 44 -345 8 -29 11 -53 7 -53 -12 0 -120 68 -206
128 -230 163 -337 340 -305 500 20 96 57 161 135 237 64 63 91 80 251 160
l179 89 135 132 c75 72 155 141 178 153 108 55 245 62 370 18z m716 -134 c206
-74 306 -236 306 -493 -1 -216 -82 -447 -246 -700 l-29 -45 -6 215 c-8 243
-21 316 -84 440 -103 204 -315 317 -606 322 l-109 2 33 34 c118 123 306 221
487 256 53 10 185 -6 254 -31z m3798 -83 c48 -14 97 -55 114 -97 31 -74 8
-202 -51 -279 -48 -63 -113 -86 -315 -109 -330 -38 -629 -114 -892 -226 -65
-28 -122 -48 -127 -45 -5 3 -14 27 -20 53 -17 67 -53 125 -107 171 l-46 39 43
30 c310 212 838 424 1164 466 64 8 202 6 237 -3z m-4280 -301 c92 -26 176 -71
241 -128 52 -47 97 -126 97 -171 0 -53 -57 -148 -146 -240 -48 -49 -90 -90
-93 -90 -4 0 -14 38 -23 84 -21 115 -56 186 -125 255 -73 73 -133 96 -248 96
-71 0 -89 -4 -148 -33 -39 -20 -80 -50 -102 -74 -61 -72 -81 -183 -50 -283 8
-27 12 -51 10 -53 -7 -7 -97 18 -150 42 -197 90 -218 264 -51 431 100 99 254
165 431 185 104 12 273 2 357 -21z m-199 -313 c45 -18 87 -71 87 -107 0 -91
-116 -180 -276 -214 -80 -17 -93 -10 -112 54 -36 119 15 231 123 269 43 15
140 14 178 -2z m4347 -4 c41 -20 70 -71 70 -122 0 -43 -48 -183 -83 -242 -81
-138 -175 -177 -477 -198 -318 -23 -618 -67 -761 -114 -41 -13 -75 -23 -77
-21 -2 2 17 41 42 87 25 47 66 134 91 194 53 129 78 156 205 216 166 80 525
180 755 211 86 12 201 6 235 -11z m-1349 -15 c45 -30 79 -94 86 -160 13 -130
-156 -479 -346 -711 -245 -298 -517 -527 -1052 -882 -156 -104 -312 -210 -347
-236 -35 -27 -65 -48 -68 -48 -33 0 164 460 291 676 289 492 788 1049 1159
1292 148 97 211 113 277 69z m-2394 -164 c5 -16 8 -122 8 -238 -1 -243 -9
-283 -82 -429 -83 -165 -214 -547 -238 -696 l-7 -44 -38 104 c-67 192 -143
316 -285 468 l-78 84 20 42 c55 113 186 255 461 500 74 65 153 145 175 177 23
32 45 58 49 58 4 1 11 -11 15 -26z m423 -34 c0 -6 7 -119 16 -252 18 -272 14
-552 -10 -657 -51 -229 -211 -468 -392 -589 -69 -46 -200 -105 -265 -118 -36
-7 -37 0 -8 158 26 145 51 246 95 384 83 255 168 431 328 680 53 83 124 207
159 277 57 115 77 146 77 117z m-845 -51 c31 -106 29 -110 -108 -249 -119
-120 -227 -257 -262 -331 l-17 -35 -60 39 c-33 22 -129 76 -214 120 -90 47
-159 89 -166 101 -30 57 -84 317 -65 317 3 0 29 -16 59 -35 151 -100 399 -123
585 -53 65 24 162 95 194 143 13 19 27 35 31 35 4 0 14 -23 23 -52z m-820
-498 c271 -133 405 -214 506 -307 175 -162 328 -468 346 -689 8 -98 5 -99
-197 -99 -214 1 -372 34 -554 119 -237 109 -438 319 -527 551 -67 174 -73 208
-73 456 1 124 4 231 8 237 4 7 47 -17 119 -65 72 -49 205 -122 372 -203z
m4720 74 c40 -26 55 -65 55 -144 0 -50 -8 -94 -25 -147 -48 -142 -106 -212
-211 -254 -54 -22 -72 -24 -219 -23 -88 1 -221 7 -295 14 -74 7 -283 17 -464
24 l-329 11 160 170 c108 114 177 179 209 197 125 67 418 128 764 158 74 6
144 13 155 15 48 8 176 -5 200 -21z m-675 -663 c456 -29 471 -30 504 -46 40
-19 56 -45 63 -105 14 -118 -65 -316 -166 -418 -159 -158 -318 -183 -791 -123
-305 39 -470 51 -711 51 -301 0 -580 -32 -833 -96 -54 -14 -100 -23 -103 -21
-7 7 123 99 272 193 217 137 496 326 648 440 167 126 178 131 264 143 95 14
481 5 853 -18z m-2349 -1474 c-2 -147 -7 -264 -11 -260 -4 4 -28 70 -54 146
-113 335 -250 579 -461 817 -49 56 -96 112 -103 126 -21 40 0 61 114 114 218
102 357 230 467 429 l42 76 6 -590 c3 -324 3 -711 0 -858z m550 398 c271 -40
408 -84 572 -184 124 -76 205 -140 293 -233 79 -85 112 -143 127 -232 9 -55 8
-70 -7 -111 -24 -62 -62 -85 -142 -85 -111 0 -245 56 -353 148 -29 25 -191
178 -358 339 -168 162 -329 312 -359 335 -30 22 -54 42 -54 44 0 11 136 1 281
-21z m849 -71 c539 -34 801 -110 970 -283 85 -86 129 -161 159 -271 25 -87 28
-188 7 -196 -14 -5 -30 2 -246 112 -195 100 -529 244 -682 293 -20 7 -71 42
-115 80 -105 90 -269 217 -315 244 -21 11 -38 25 -38 29 0 5 39 6 88 3 48 -3
125 -8 172 -11z m-849 -297 c412 -396 426 -412 498 -589 95 -233 344 -959 339
-990 -3 -21 -8 -23 -63 -23 -227 0 -475 331 -742 988 -93 231 -323 852 -323
874 0 15 70 -48 291 -260z m-1590 23 c97 -11 237 -49 316 -85 117 -53 247
-159 343 -280 52 -66 140 -203 140 -219 0 -14 -301 1 -401 20 -183 34 -336
109 -559 273 -85 63 -198 140 -250 171 -52 31 -94 60 -93 65 2 15 76 34 188
49 124 17 205 19 316 6z m2794 -234 c222 -88 416 -179 570 -269 147 -86 185
-132 185 -229 -1 -144 -140 -368 -247 -394 -45 -12 -104 31 -223 163 -63 70
-184 198 -268 285 l-154 157 17 52 c17 51 17 158 -1 247 -3 17 -2 32 2 32 5 0
59 -20 119 -44z m-450 -361 c52 -13 90 -16 145 -11 72 6 78 4 121 -22 73 -47
488 -506 520 -576 24 -54 24 -81 -5 -141 -50 -107 -262 -257 -392 -279 -63
-11 -116 8 -159 56 -49 53 -78 119 -165 373 -97 285 -198 562 -221 607 -28 55
-24 59 34 34 28 -13 84 -31 122 -41z"/>
</g>
</svg>
